<svg width="16" height="16" viewBox="0 0 16 16" fill="none" xmlns="http://www.w3.org/2000/svg">
<path fill-rule="evenodd" clip-rule="evenodd" d="M8.70711 1.70711C9.09763 1.31658 9.09763 0.683417 8.70711 0.292893C8.31658 -0.0976311 7.68342 -0.0976311 7.29289 0.292893L0.293258 7.29253L0.292893 7.29289M8.70711 1.70711L3.41421 7ZM3.41421 7H15C15.5523 7 16 7.44772 16 8C16 8.55229 15.5523 9 15 9H3.41421L8.70711 14.2929C9.09763 14.6834 9.09763 15.3166 8.70711 15.7071C8.31658 16.0976 7.68342 16.0976 7.29289 15.7071L0.293423 8.70764L0.292893 8.70711M0.290776 8.70498C0.195951 8.6096 0.124319 8.49986 0.0758788 8.38278ZM0.290776 7.29502C0.111056 7.47581 0 7.72494 0 8C0 8.13559 0.0269856 8.26488 0.0758788 8.38278" fill="black"/>
</svg>
