<svg width="16" height="24" viewBox="0 0 16 24" fill="none" xmlns="http://www.w3.org/2000/svg">
<path fill-rule="evenodd" clip-rule="evenodd" d="M8 0C6.93913 0 5.92172 0.421427 5.17157 1.17157C4.42143 1.92172 4 2.93913 4 4V12C4 13.0609 4.42143 14.0783 5.17157 14.8284C5.92172 15.5786 6.93913 16 8 16C9.06087 16 10.0783 15.5786 10.8284 14.8284C11.5786 14.0783 12 13.0609 12 12V4C12 2.93913 11.5786 1.92172 10.8284 1.17157C10.0783 0.421427 9.06087 0 8 0ZM6.58579 2.58579C6.96086 2.21071 7.46957 2 8 2C8.53043 2 9.03914 2.21071 9.41421 2.58579C9.78929 2.96086 10 3.46957 10 4V12C10 12.5304 9.78929 13.0391 9.41421 13.4142C9.03914 13.7893 8.53043 14 8 14C7.46957 14 6.96086 13.7893 6.58579 13.4142C6.21071 13.0391 6 12.5304 6 12V4C6 3.46957 6.21071 2.96086 6.58579 2.58579ZM2 10C2 9.44771 1.55228 9 1 9C0.447715 9 0 9.44771 0 10V12C0 14.1217 0.842855 16.1566 2.34315 17.6569C3.60577 18.9195 5.247 19.7165 7 19.9373V22H4C3.44772 22 3 22.4477 3 23C3 23.5523 3.44772 24 4 24H8H12C12.5523 24 13 23.5523 13 23C13 22.4477 12.5523 22 12 22H9V19.9373C10.753 19.7165 12.3942 18.9195 13.6569 17.6569C15.1571 16.1566 16 14.1217 16 12V10C16 9.44771 15.5523 9 15 9C14.4477 9 14 9.44771 14 10V12C14 13.5913 13.3679 15.1174 12.2426 16.2426C11.1174 17.3679 9.5913 18 8 18C6.4087 18 4.88258 17.3679 3.75736 16.2426C2.63214 15.1174 2 13.5913 2 12V10Z" fill="black"/>
</svg>
