<svg width="22" height="23" viewBox="0 0 22 23" fill="none" xmlns="http://www.w3.org/2000/svg">
<path fill-rule="evenodd" clip-rule="evenodd" d="M12.6572 3.26703C13.2202 2.704 13.9838 2.3877 14.78 2.3877C15.5763 2.3877 16.3399 2.704 16.9029 3.26703C17.466 3.83005 17.7823 4.59368 17.7823 5.38992C17.7823 6.18598 17.4661 6.94944 16.9033 7.51243L16.9029 7.51281L7.70332 16.7024L7.70294 16.7028C7.51519 16.8906 7.26056 16.996 6.99505 16.996C6.72954 16.996 6.4749 16.8906 6.28715 16.7028C6.09941 16.5151 5.99393 16.2604 5.99393 15.9949C5.99393 15.7296 6.09925 15.4751 6.28674 15.2874L6.28685 15.2873L6.28715 15.287L14.7767 6.80744C15.1675 6.41715 15.1679 5.78398 14.7776 5.39323C14.3873 5.00247 13.7541 5.0021 13.3634 5.3924L4.87336 13.8724L4.87294 13.8728C4.31012 14.4356 3.99393 15.199 3.99393 15.9949C3.99393 16.7909 4.31012 17.5542 4.87294 18.117C5.43576 18.6798 6.1991 18.996 6.99505 18.996C7.79099 18.996 8.55434 18.6798 9.11715 18.117L18.3168 8.92741L18.3172 8.92703C19.2553 7.98893 19.7823 6.71659 19.7823 5.38992C19.7823 4.06325 19.2553 2.79091 18.3172 1.85281C17.3791 0.914714 16.1067 0.387695 14.78 0.387695C13.4534 0.387695 12.181 0.914714 11.2429 1.85281L2.05294 11.0428C0.739558 12.3562 0.00170898 14.1375 0.00170898 15.9949C0.00170898 17.8523 0.739558 19.6336 2.05294 20.947C3.36632 22.2604 5.14765 22.9983 7.00505 22.9983C8.86245 22.9983 10.6438 22.2604 11.9572 20.947L21.1472 11.757C21.5377 11.3665 21.5377 10.7333 21.1472 10.3428C20.7566 9.95229 20.1235 9.95229 19.7329 10.3428L10.5429 19.5328C9.60463 20.4711 8.33201 20.9983 7.00505 20.9983C5.67808 20.9983 4.40546 20.4711 3.46715 19.5328C2.52884 18.5945 2.00171 17.3219 2.00171 15.9949C2.00171 14.668 2.52884 13.3953 3.46715 12.457L12.6572 3.26703Z" fill="black"/>
</svg>
