<svg width="22" height="22" viewBox="0 0 22 22" fill="none" xmlns="http://www.w3.org/2000/svg">
<path fill-rule="evenodd" clip-rule="evenodd" d="M21.7071 0.292891C21.9306 0.516374 22.0262 0.81932 21.9939 1.11078C21.9848 1.19248 21.9657 1.27329 21.9366 1.35118L14.9439 21.3303C14.8084 21.7173 14.4504 21.9825 14.0408 21.9992C13.6311 22.0159 13.2527 21.7808 13.0862 21.4061L9.2424 12.7576L0.593867 8.91381C0.219186 8.74728 -0.0158775 8.36891 0.000836313 7.95923C0.0175501 7.54955 0.282654 7.19159 0.669655 7.05614L20.6488 0.0634477C20.7272 0.0341053 20.8085 0.0149399 20.8907 0.00595144C20.9511 -0.000692443 21.0117 -0.0017683 21.0717 0.00255544C21.3032 0.0190984 21.5301 0.115877 21.7071 0.292891ZM17.1943 3.39147L3.71108 8.1106L9.77854 10.8073L17.1943 3.39147ZM11.1928 12.2215L18.6085 4.80568L13.8894 18.2889L11.1928 12.2215Z" fill="black"/>
</svg>
